<mxfile host="app.diagrams.net" agent="Mozilla/5.0 (Windows NT 10.0; Win64; x64) AppleWebKit/537.36 (KHTML, like Gecko) Chrome/139.0.0.0 Safari/537.36" version="28.1.1">
  <diagram name="Page-1" id="28ixYq8MRAYOEwlzyC5h">
    <mxGraphModel dx="8967" dy="2600" grid="1" gridSize="10" guides="1" tooltips="1" connect="1" arrows="1" fold="1" page="1" pageScale="1" pageWidth="850" pageHeight="1100" math="0" shadow="0">
      <root>
        <mxCell id="0" />
        <mxCell id="1" parent="0" />
        <mxCell id="5JNaujrm3hN9MsrldkOH-1" value="" style="rounded=1;whiteSpace=wrap;html=1;" vertex="1" parent="1">
          <mxGeometry x="2520" y="3462.5" width="190" height="450" as="geometry" />
        </mxCell>
        <mxCell id="5JNaujrm3hN9MsrldkOH-2" value="&lt;font style=&quot;font-size: 21px;&quot;&gt;joy-me-ai&lt;/font&gt;" style="text;html=1;align=center;verticalAlign=middle;resizable=0;points=[];autosize=1;strokeColor=none;fillColor=none;" vertex="1" parent="1">
          <mxGeometry x="2780" y="3270" width="110" height="40" as="geometry" />
        </mxCell>
        <mxCell id="5JNaujrm3hN9MsrldkOH-3" value="Get similar media" style="text;html=1;align=center;verticalAlign=middle;whiteSpace=wrap;rounded=0;" vertex="1" parent="1">
          <mxGeometry x="2540" y="3512.5" width="140" height="30" as="geometry" />
        </mxCell>
        <mxCell id="5JNaujrm3hN9MsrldkOH-4" value="Redis" style="shape=cylinder3;whiteSpace=wrap;html=1;boundedLbl=1;backgroundOutline=1;size=15;" vertex="1" parent="1">
          <mxGeometry x="4360" y="4010" width="60" height="80" as="geometry" />
        </mxCell>
        <mxCell id="5JNaujrm3hN9MsrldkOH-5" value="PostgreSQL" style="shape=cylinder3;whiteSpace=wrap;html=1;boundedLbl=1;backgroundOutline=1;size=15;" vertex="1" parent="1">
          <mxGeometry x="4320" y="3070" width="100" height="80" as="geometry" />
        </mxCell>
        <mxCell id="5JNaujrm3hN9MsrldkOH-6" value="&lt;font style=&quot;font-size: 21px;&quot;&gt;joy-me-be&lt;/font&gt;" style="text;html=1;align=center;verticalAlign=middle;resizable=0;points=[];autosize=1;strokeColor=none;fillColor=none;" vertex="1" parent="1">
          <mxGeometry x="2820" y="2100" width="120" height="40" as="geometry" />
        </mxCell>
        <mxCell id="5JNaujrm3hN9MsrldkOH-7" value="" style="rounded=1;whiteSpace=wrap;html=1;" vertex="1" parent="1">
          <mxGeometry x="2535" y="2290" width="190" height="287" as="geometry" />
        </mxCell>
        <mxCell id="5JNaujrm3hN9MsrldkOH-8" value="" style="rounded=1;whiteSpace=wrap;html=1;" vertex="1" parent="1">
          <mxGeometry x="1890" y="2270" width="190" height="287" as="geometry" />
        </mxCell>
        <mxCell id="5JNaujrm3hN9MsrldkOH-9" value="&lt;font style=&quot;font-size: 21px;&quot;&gt;joy-me-app&lt;/font&gt;" style="text;html=1;align=center;verticalAlign=middle;resizable=0;points=[];autosize=1;strokeColor=none;fillColor=none;" vertex="1" parent="1">
          <mxGeometry x="1645" y="3270" width="130" height="40" as="geometry" />
        </mxCell>
        <mxCell id="5JNaujrm3hN9MsrldkOH-10" value="&lt;font style=&quot;font-size: 21px;&quot;&gt;joy-me-ui&lt;/font&gt;" style="text;html=1;align=center;verticalAlign=middle;resizable=0;points=[];autosize=1;strokeColor=none;fillColor=none;" vertex="1" parent="1">
          <mxGeometry x="2075" y="2200" width="110" height="40" as="geometry" />
        </mxCell>
        <mxCell id="5JNaujrm3hN9MsrldkOH-11" value="Amazon S3" style="sketch=0;outlineConnect=0;strokeColor=#82b366;fillColor=#d5e8d4;dashed=0;verticalLabelPosition=middle;verticalAlign=bottom;align=center;html=1;whiteSpace=wrap;fontSize=10;fontStyle=1;spacing=3;shape=mxgraph.aws4.productIcon;prIcon=mxgraph.aws4.s3;" vertex="1" parent="1">
          <mxGeometry x="4340" y="2080" width="80" height="100" as="geometry" />
        </mxCell>
        <mxCell id="5JNaujrm3hN9MsrldkOH-12" value="" style="whiteSpace=wrap;html=1;" vertex="1" parent="1">
          <mxGeometry x="40" y="4420" width="420" height="410" as="geometry" />
        </mxCell>
        <mxCell id="5JNaujrm3hN9MsrldkOH-13" value="Notes" style="text;strokeColor=none;fillColor=none;html=1;fontSize=24;fontStyle=1;verticalAlign=middle;align=center;" vertex="1" parent="1">
          <mxGeometry x="50" y="4430" width="100" height="40" as="geometry" />
        </mxCell>
        <mxCell id="5JNaujrm3hN9MsrldkOH-14" value="1. The image path is just the UUID of the image" style="text;strokeColor=none;align=left;fillColor=none;html=1;verticalAlign=middle;whiteSpace=wrap;rounded=0;" vertex="1" parent="1">
          <mxGeometry x="60" y="4490" width="380" height="30" as="geometry" />
        </mxCell>
        <mxCell id="5JNaujrm3hN9MsrldkOH-15" value="" style="sketch=0;points=[[0,0,0],[0.25,0,0],[0.5,0,0],[0.75,0,0],[1,0,0],[0,1,0],[0.25,1,0],[0.5,1,0],[0.75,1,0],[1,1,0],[0,0.25,0],[0,0.5,0],[0,0.75,0],[1,0.25,0],[1,0.5,0],[1,0.75,0]];outlineConnect=0;fontColor=#232F3E;fillColor=#C925D1;strokeColor=#ffffff;dashed=0;verticalLabelPosition=bottom;verticalAlign=top;align=center;html=1;fontSize=12;fontStyle=0;aspect=fixed;shape=mxgraph.aws4.resourceIcon;resIcon=mxgraph.aws4.keyspaces;" vertex="1" parent="1">
          <mxGeometry x="4360" y="4680" width="78" height="78" as="geometry" />
        </mxCell>
        <mxCell id="5JNaujrm3hN9MsrldkOH-16" value="" style="rounded=1;whiteSpace=wrap;html=1;" vertex="1" parent="1">
          <mxGeometry x="1490" y="3510" width="190" height="287" as="geometry" />
        </mxCell>
        <mxCell id="5JNaujrm3hN9MsrldkOH-17" value="&lt;h3&gt;Session&lt;/h3&gt;" style="text;strokeColor=none;align=center;fillColor=none;html=1;verticalAlign=middle;whiteSpace=wrap;rounded=0;" vertex="1" parent="1">
          <mxGeometry x="1550" y="3515" width="60" height="30" as="geometry" />
        </mxCell>
        <mxCell id="5JNaujrm3hN9MsrldkOH-18" value="Get similar media / Like" style="text;strokeColor=none;align=center;fillColor=none;html=1;verticalAlign=middle;whiteSpace=wrap;rounded=0;" vertex="1" parent="1">
          <mxGeometry x="1510" y="3620" width="150" height="30" as="geometry" />
        </mxCell>
        <mxCell id="5JNaujrm3hN9MsrldkOH-19" value="Dislike" style="text;strokeColor=none;align=center;fillColor=none;html=1;verticalAlign=middle;whiteSpace=wrap;rounded=0;" vertex="1" parent="1">
          <mxGeometry x="1555" y="3660" width="60" height="30" as="geometry" />
        </mxCell>
        <mxCell id="5JNaujrm3hN9MsrldkOH-20" value="" style="rounded=1;whiteSpace=wrap;html=1;" vertex="1" parent="1">
          <mxGeometry x="1850" y="3520" width="190" height="287" as="geometry" />
        </mxCell>
        <mxCell id="5JNaujrm3hN9MsrldkOH-21" value="&lt;h3&gt;End Session&lt;/h3&gt;" style="text;strokeColor=none;align=center;fillColor=none;html=1;verticalAlign=middle;whiteSpace=wrap;rounded=0;" vertex="1" parent="1">
          <mxGeometry x="1890" y="3525" width="110" height="30" as="geometry" />
        </mxCell>
        <mxCell id="5JNaujrm3hN9MsrldkOH-22" style="edgeStyle=orthogonalEdgeStyle;rounded=0;orthogonalLoop=1;jettySize=auto;html=1;entryX=0;entryY=0.5;entryDx=0;entryDy=0;" edge="1" parent="1" source="5JNaujrm3hN9MsrldkOH-23" target="5JNaujrm3hN9MsrldkOH-57">
          <mxGeometry relative="1" as="geometry" />
        </mxCell>
        <mxCell id="5JNaujrm3hN9MsrldkOH-23" value="Get random media" style="text;strokeColor=none;align=center;fillColor=none;html=1;verticalAlign=middle;whiteSpace=wrap;rounded=0;" vertex="1" parent="1">
          <mxGeometry x="1520" y="3545" width="130" height="30" as="geometry" />
        </mxCell>
        <mxCell id="5JNaujrm3hN9MsrldkOH-24" value="Get top k suppliers" style="text;strokeColor=none;align=center;fillColor=none;html=1;verticalAlign=middle;whiteSpace=wrap;rounded=0;" vertex="1" parent="1">
          <mxGeometry x="1870" y="3590" width="150" height="30" as="geometry" />
        </mxCell>
        <mxCell id="5JNaujrm3hN9MsrldkOH-25" value="" style="rounded=1;whiteSpace=wrap;html=1;" vertex="1" parent="1">
          <mxGeometry x="1740" y="3930" width="190" height="287" as="geometry" />
        </mxCell>
        <mxCell id="5JNaujrm3hN9MsrldkOH-26" value="" style="rounded=1;whiteSpace=wrap;html=1;" vertex="1" parent="1">
          <mxGeometry x="2070" y="3930" width="190" height="287" as="geometry" />
        </mxCell>
        <mxCell id="5JNaujrm3hN9MsrldkOH-27" value="&lt;h3&gt;Fight Page&lt;/h3&gt;" style="text;strokeColor=none;align=center;fillColor=none;html=1;verticalAlign=middle;whiteSpace=wrap;rounded=0;" vertex="1" parent="1">
          <mxGeometry x="1775" y="3940" width="110" height="30" as="geometry" />
        </mxCell>
        <mxCell id="5JNaujrm3hN9MsrldkOH-28" value="&lt;h3&gt;Supplier Page&lt;/h3&gt;" style="text;strokeColor=none;align=center;fillColor=none;html=1;verticalAlign=middle;whiteSpace=wrap;rounded=0;" vertex="1" parent="1">
          <mxGeometry x="2110" y="3940" width="110" height="30" as="geometry" />
        </mxCell>
        <mxCell id="5JNaujrm3hN9MsrldkOH-29" value="" style="edgeStyle=orthogonalEdgeStyle;rounded=0;orthogonalLoop=1;jettySize=auto;html=1;entryX=0;entryY=0.5;entryDx=0;entryDy=0;" edge="1" parent="1" source="5JNaujrm3hN9MsrldkOH-30" target="5JNaujrm3hN9MsrldkOH-46">
          <mxGeometry relative="1" as="geometry" />
        </mxCell>
        <mxCell id="5JNaujrm3hN9MsrldkOH-30" value="End" style="html=1;shadow=0;dashed=0;shape=mxgraph.bootstrap.rrect;rSize=5;strokeColor=none;strokeWidth=1;fillColor=#6C767D;fontColor=#FFFFFF;whiteSpace=wrap;align=center;verticalAlign=middle;spacingLeft=0;fontStyle=0;fontSize=16;spacing=5;" vertex="1" parent="1">
          <mxGeometry x="1542.5" y="3700" width="85" height="30" as="geometry" />
        </mxCell>
        <mxCell id="5JNaujrm3hN9MsrldkOH-31" value="" style="edgeStyle=orthogonalEdgeStyle;rounded=0;orthogonalLoop=1;jettySize=auto;html=1;entryX=0.5;entryY=0;entryDx=0;entryDy=0;" edge="1" parent="1" source="5JNaujrm3hN9MsrldkOH-32" target="5JNaujrm3hN9MsrldkOH-25">
          <mxGeometry relative="1" as="geometry">
            <mxPoint x="1945" y="3860" as="targetPoint" />
          </mxGeometry>
        </mxCell>
        <mxCell id="5JNaujrm3hN9MsrldkOH-32" value="&lt;font style=&quot;font-size: 11px;&quot;&gt;Fight&lt;/font&gt;" style="html=1;shadow=0;dashed=0;shape=mxgraph.bootstrap.rrect;rSize=5;strokeColor=none;strokeWidth=1;fillColor=#6C767D;fontColor=#FFFFFF;whiteSpace=wrap;align=center;verticalAlign=middle;spacingLeft=0;fontStyle=0;fontSize=16;spacing=5;" vertex="1" parent="1">
          <mxGeometry x="1915" y="3750" width="60" height="30" as="geometry" />
        </mxCell>
        <mxCell id="5JNaujrm3hN9MsrldkOH-33" value="" style="edgeStyle=orthogonalEdgeStyle;rounded=0;orthogonalLoop=1;jettySize=auto;html=1;entryX=0.5;entryY=0;entryDx=0;entryDy=0;" edge="1" parent="1" source="5JNaujrm3hN9MsrldkOH-34" target="5JNaujrm3hN9MsrldkOH-26">
          <mxGeometry relative="1" as="geometry" />
        </mxCell>
        <mxCell id="5JNaujrm3hN9MsrldkOH-34" value="&lt;font style=&quot;font-size: 11px;&quot;&gt;Supplier 1&lt;/font&gt;" style="html=1;shadow=0;dashed=0;shape=mxgraph.bootstrap.rrect;rSize=5;strokeColor=none;strokeWidth=1;fillColor=#6C767D;fontColor=#FFFFFF;whiteSpace=wrap;align=center;verticalAlign=middle;spacingLeft=0;fontStyle=0;fontSize=16;spacing=5;" vertex="1" parent="1">
          <mxGeometry x="1870" y="3638.5" width="60" height="30" as="geometry" />
        </mxCell>
        <mxCell id="5JNaujrm3hN9MsrldkOH-35" value="" style="edgeStyle=orthogonalEdgeStyle;rounded=0;orthogonalLoop=1;jettySize=auto;html=1;entryX=0.5;entryY=0;entryDx=0;entryDy=0;" edge="1" parent="1" source="5JNaujrm3hN9MsrldkOH-36" target="5JNaujrm3hN9MsrldkOH-26">
          <mxGeometry relative="1" as="geometry">
            <Array as="points" />
          </mxGeometry>
        </mxCell>
        <mxCell id="5JNaujrm3hN9MsrldkOH-36" value="&lt;font style=&quot;font-size: 11px;&quot;&gt;Supplier 2&lt;/font&gt;" style="html=1;shadow=0;dashed=0;shape=mxgraph.bootstrap.rrect;rSize=5;strokeColor=none;strokeWidth=1;fillColor=#6C767D;fontColor=#FFFFFF;whiteSpace=wrap;align=center;verticalAlign=middle;spacingLeft=0;fontStyle=0;fontSize=16;spacing=5;" vertex="1" parent="1">
          <mxGeometry x="1950" y="3638.5" width="60" height="30" as="geometry" />
        </mxCell>
        <mxCell id="5JNaujrm3hN9MsrldkOH-37" value="" style="edgeStyle=orthogonalEdgeStyle;rounded=0;orthogonalLoop=1;jettySize=auto;html=1;entryX=0.5;entryY=0;entryDx=0;entryDy=0;" edge="1" parent="1" source="5JNaujrm3hN9MsrldkOH-38" target="5JNaujrm3hN9MsrldkOH-26">
          <mxGeometry relative="1" as="geometry" />
        </mxCell>
        <mxCell id="5JNaujrm3hN9MsrldkOH-38" value="&lt;font style=&quot;font-size: 11px;&quot;&gt;Supplier 3&lt;/font&gt;" style="html=1;shadow=0;dashed=0;shape=mxgraph.bootstrap.rrect;rSize=5;strokeColor=none;strokeWidth=1;fillColor=#6C767D;fontColor=#FFFFFF;whiteSpace=wrap;align=center;verticalAlign=middle;spacingLeft=0;fontStyle=0;fontSize=16;spacing=5;" vertex="1" parent="1">
          <mxGeometry x="1905" y="3690" width="60" height="30" as="geometry" />
        </mxCell>
        <mxCell id="5JNaujrm3hN9MsrldkOH-39" value="Get supplier information" style="text;strokeColor=none;align=center;fillColor=none;html=1;verticalAlign=middle;whiteSpace=wrap;rounded=0;" vertex="1" parent="1">
          <mxGeometry x="2095" y="4010" width="150" height="30" as="geometry" />
        </mxCell>
        <mxCell id="5JNaujrm3hN9MsrldkOH-40" value="" style="edgeStyle=orthogonalEdgeStyle;rounded=0;orthogonalLoop=1;jettySize=auto;html=1;" edge="1" parent="1" source="5JNaujrm3hN9MsrldkOH-41" target="5JNaujrm3hN9MsrldkOH-44">
          <mxGeometry relative="1" as="geometry">
            <mxPoint x="1720" y="4105" as="targetPoint" />
          </mxGeometry>
        </mxCell>
        <mxCell id="5JNaujrm3hN9MsrldkOH-41" value="&lt;font style=&quot;font-size: 11px;&quot;&gt;Fight&lt;/font&gt;" style="html=1;shadow=0;dashed=0;shape=mxgraph.bootstrap.rrect;rSize=5;strokeColor=none;strokeWidth=1;fillColor=#6C767D;fontColor=#FFFFFF;whiteSpace=wrap;align=center;verticalAlign=middle;spacingLeft=0;fontStyle=0;fontSize=16;spacing=5;" vertex="1" parent="1">
          <mxGeometry x="1800" y="4090" width="60" height="30" as="geometry" />
        </mxCell>
        <mxCell id="5JNaujrm3hN9MsrldkOH-42" value="" style="rhombus;whiteSpace=wrap;html=1;" vertex="1" parent="1">
          <mxGeometry x="1170" y="3940" width="175" height="110" as="geometry" />
        </mxCell>
        <mxCell id="5JNaujrm3hN9MsrldkOH-43" value="" style="edgeStyle=orthogonalEdgeStyle;rounded=0;orthogonalLoop=1;jettySize=auto;html=1;entryX=-0.005;entryY=0.463;entryDx=0;entryDy=0;entryPerimeter=0;" edge="1" parent="1" source="5JNaujrm3hN9MsrldkOH-44" target="5JNaujrm3hN9MsrldkOH-16">
          <mxGeometry relative="1" as="geometry">
            <mxPoint x="1290" y="3915" as="targetPoint" />
          </mxGeometry>
        </mxCell>
        <mxCell id="5JNaujrm3hN9MsrldkOH-44" value="List of suppliers,&lt;div&gt;Session category&lt;/div&gt;" style="text;strokeColor=none;align=center;fillColor=none;html=1;verticalAlign=middle;whiteSpace=wrap;rounded=0;" vertex="1" parent="1">
          <mxGeometry x="1210" y="3975" width="95" height="40" as="geometry" />
        </mxCell>
        <mxCell id="5JNaujrm3hN9MsrldkOH-45" value="" style="edgeStyle=orthogonalEdgeStyle;rounded=0;orthogonalLoop=1;jettySize=auto;html=1;entryX=-0.011;entryY=0.645;entryDx=0;entryDy=0;entryPerimeter=0;" edge="1" parent="1" source="5JNaujrm3hN9MsrldkOH-46" target="5JNaujrm3hN9MsrldkOH-20">
          <mxGeometry relative="1" as="geometry">
            <mxPoint x="1760" y="3605" as="targetPoint" />
          </mxGeometry>
        </mxCell>
        <mxCell id="5JNaujrm3hN9MsrldkOH-46" value="" style="rhombus;whiteSpace=wrap;html=1;" vertex="1" parent="1">
          <mxGeometry x="1710" y="3430" width="100" height="95" as="geometry" />
        </mxCell>
        <mxCell id="5JNaujrm3hN9MsrldkOH-47" value="If is_filght&lt;div&gt;k = 1&lt;/div&gt;&lt;div&gt;else&amp;nbsp; &amp;nbsp; &amp;nbsp; &amp;nbsp; &amp;nbsp;&lt;/div&gt;&lt;div&gt;k = 3&lt;/div&gt;" style="text;strokeColor=none;align=center;fillColor=none;html=1;verticalAlign=middle;whiteSpace=wrap;rounded=0;" vertex="1" parent="1">
          <mxGeometry x="1722.5" y="3462.5" width="75" height="30" as="geometry" />
        </mxCell>
        <mxCell id="5JNaujrm3hN9MsrldkOH-48" value="" style="edgeStyle=orthogonalEdgeStyle;rounded=0;orthogonalLoop=1;jettySize=auto;html=1;entryX=0.5;entryY=0;entryDx=0;entryDy=0;" edge="1" parent="1" source="5JNaujrm3hN9MsrldkOH-49" target="5JNaujrm3hN9MsrldkOH-42">
          <mxGeometry relative="1" as="geometry">
            <mxPoint x="1220" y="3733.5" as="targetPoint" />
          </mxGeometry>
        </mxCell>
        <mxCell id="5JNaujrm3hN9MsrldkOH-49" value="" style="rounded=1;whiteSpace=wrap;html=1;" vertex="1" parent="1">
          <mxGeometry x="950" y="3590" width="190" height="287" as="geometry" />
        </mxCell>
        <mxCell id="5JNaujrm3hN9MsrldkOH-50" value="&lt;h3&gt;Start Session&lt;/h3&gt;" style="text;strokeColor=none;align=center;fillColor=none;html=1;verticalAlign=middle;whiteSpace=wrap;rounded=0;" vertex="1" parent="1">
          <mxGeometry x="980" y="3600" width="110" height="30" as="geometry" />
        </mxCell>
        <mxCell id="5JNaujrm3hN9MsrldkOH-51" value="Bridal dresses" style="html=1;shadow=0;dashed=0;shape=mxgraph.bootstrap.rrect;rSize=5;strokeColor=none;strokeWidth=1;fillColor=#6C767D;fontColor=#FFFFFF;whiteSpace=wrap;align=center;verticalAlign=middle;spacingLeft=0;fontStyle=0;fontSize=16;spacing=5;" vertex="1" parent="1">
          <mxGeometry x="980" y="3650" width="117.5" height="30" as="geometry" />
        </mxCell>
        <mxCell id="5JNaujrm3hN9MsrldkOH-52" value="Photografer" style="html=1;shadow=0;dashed=0;shape=mxgraph.bootstrap.rrect;rSize=5;strokeColor=none;strokeWidth=1;fillColor=#6C767D;fontColor=#FFFFFF;whiteSpace=wrap;align=center;verticalAlign=middle;spacingLeft=0;fontStyle=0;fontSize=16;spacing=5;" vertex="1" parent="1">
          <mxGeometry x="980" y="3690" width="117.5" height="30" as="geometry" />
        </mxCell>
        <mxCell id="5JNaujrm3hN9MsrldkOH-53" value="Get image #1" style="text;strokeColor=none;align=center;fillColor=none;html=1;verticalAlign=middle;whiteSpace=wrap;rounded=0;" vertex="1" parent="1">
          <mxGeometry x="1520" y="3580" width="130" height="30" as="geometry" />
        </mxCell>
        <mxCell id="5JNaujrm3hN9MsrldkOH-54" value="&lt;h3&gt;Media Controller&lt;/h3&gt;" style="text;strokeColor=none;align=center;fillColor=none;html=1;verticalAlign=middle;whiteSpace=wrap;rounded=0;" vertex="1" parent="1">
          <mxGeometry x="2540" y="3472.5" width="150" height="30" as="geometry" />
        </mxCell>
        <mxCell id="5JNaujrm3hN9MsrldkOH-55" value="&lt;h3&gt;Media Controller&lt;/h3&gt;" style="text;strokeColor=none;align=center;fillColor=none;html=1;verticalAlign=middle;whiteSpace=wrap;rounded=0;" vertex="1" parent="1">
          <mxGeometry x="2550" y="2300" width="150" height="30" as="geometry" />
        </mxCell>
        <mxCell id="5JNaujrm3hN9MsrldkOH-56" style="edgeStyle=orthogonalEdgeStyle;rounded=0;orthogonalLoop=1;jettySize=auto;html=1;" edge="1" parent="1" source="5JNaujrm3hN9MsrldkOH-57" target="5JNaujrm3hN9MsrldkOH-63">
          <mxGeometry relative="1" as="geometry" />
        </mxCell>
        <mxCell id="5JNaujrm3hN9MsrldkOH-57" value="get_random_media(list_size)" style="text;html=1;align=center;verticalAlign=middle;whiteSpace=wrap;rounded=0;" vertex="1" parent="1">
          <mxGeometry x="2560" y="2340" width="140" height="30" as="geometry" />
        </mxCell>
        <mxCell id="5JNaujrm3hN9MsrldkOH-58" value="Infrastructure" style="text;strokeColor=none;fillColor=none;html=1;fontSize=24;fontStyle=1;verticalAlign=middle;align=center;" vertex="1" parent="1">
          <mxGeometry x="4340" y="3620" width="100" height="40" as="geometry" />
        </mxCell>
        <mxCell id="5JNaujrm3hN9MsrldkOH-59" value="Controllers" style="text;html=1;align=center;verticalAlign=middle;whiteSpace=wrap;rounded=0;" vertex="1" parent="1">
          <mxGeometry x="2560" y="2240" width="140" height="30" as="geometry" />
        </mxCell>
        <mxCell id="5JNaujrm3hN9MsrldkOH-60" value="Services" style="text;html=1;align=center;verticalAlign=middle;whiteSpace=wrap;rounded=0;" vertex="1" parent="1">
          <mxGeometry x="2840" y="2240" width="140" height="30" as="geometry" />
        </mxCell>
        <mxCell id="5JNaujrm3hN9MsrldkOH-61" value="" style="rounded=1;whiteSpace=wrap;html=1;" vertex="1" parent="1">
          <mxGeometry x="2820" y="2290" width="260" height="287" as="geometry" />
        </mxCell>
        <mxCell id="5JNaujrm3hN9MsrldkOH-62" value="&lt;h3&gt;Media Service&lt;/h3&gt;" style="text;strokeColor=none;align=center;fillColor=none;html=1;verticalAlign=middle;whiteSpace=wrap;rounded=0;" vertex="1" parent="1">
          <mxGeometry x="2835" y="2300" width="150" height="30" as="geometry" />
        </mxCell>
        <mxCell id="5JNaujrm3hN9MsrldkOH-63" value="&lt;div&gt;&lt;span style=&quot;background-color: transparent; color: light-dark(rgb(0, 0, 0), rgb(255, 255, 255));&quot;&gt;get_random_media(list_size)&lt;/span&gt;&lt;/div&gt;&lt;ol&gt;&lt;li&gt;&lt;span style=&quot;background-color: transparent; color: light-dark(rgb(0, 0, 0), rgb(255, 255, 255));&quot;&gt;Get from DB random media&lt;/span&gt;&lt;/li&gt;&lt;li&gt;&lt;span style=&quot;background-color: transparent; color: light-dark(rgb(0, 0, 0), rgb(255, 255, 255));&quot;&gt;Return list of URLs&lt;/span&gt;&lt;/li&gt;&lt;/ol&gt;" style="text;strokeColor=none;align=left;fillColor=none;html=1;verticalAlign=middle;whiteSpace=wrap;rounded=0;" vertex="1" parent="1">
          <mxGeometry x="2830" y="2340" width="250" height="90" as="geometry" />
        </mxCell>
        <mxCell id="5JNaujrm3hN9MsrldkOH-64" value="Media" style="shape=table;startSize=30;container=1;collapsible=1;childLayout=tableLayout;fixedRows=1;rowLines=0;fontStyle=1;align=center;resizeLast=1;" vertex="1" parent="1">
          <mxGeometry x="4640" y="3040" width="320" height="150" as="geometry" />
        </mxCell>
        <mxCell id="5JNaujrm3hN9MsrldkOH-65" value="" style="shape=tableRow;horizontal=0;startSize=0;swimlaneHead=0;swimlaneBody=0;fillColor=none;collapsible=0;dropTarget=0;points=[[0,0.5],[1,0.5]];portConstraint=eastwest;strokeColor=inherit;top=0;left=0;right=0;bottom=1;" vertex="1" parent="5JNaujrm3hN9MsrldkOH-64">
          <mxGeometry y="30" width="320" height="30" as="geometry" />
        </mxCell>
        <mxCell id="5JNaujrm3hN9MsrldkOH-66" value="PK" style="shape=partialRectangle;overflow=hidden;connectable=0;fillColor=none;strokeColor=inherit;top=0;left=0;bottom=0;right=0;fontStyle=1;" vertex="1" parent="5JNaujrm3hN9MsrldkOH-65">
          <mxGeometry width="30" height="30" as="geometry">
            <mxRectangle width="30" height="30" as="alternateBounds" />
          </mxGeometry>
        </mxCell>
        <mxCell id="5JNaujrm3hN9MsrldkOH-67" value="media_id int NOT NULL " style="shape=partialRectangle;overflow=hidden;connectable=0;fillColor=none;align=left;strokeColor=inherit;top=0;left=0;bottom=0;right=0;spacingLeft=6;fontStyle=5;" vertex="1" parent="5JNaujrm3hN9MsrldkOH-65">
          <mxGeometry x="30" width="290" height="30" as="geometry">
            <mxRectangle width="290" height="30" as="alternateBounds" />
          </mxGeometry>
        </mxCell>
        <mxCell id="5JNaujrm3hN9MsrldkOH-68" value="" style="shape=tableRow;horizontal=0;startSize=0;swimlaneHead=0;swimlaneBody=0;fillColor=none;collapsible=0;dropTarget=0;points=[[0,0.5],[1,0.5]];portConstraint=eastwest;strokeColor=inherit;top=0;left=0;right=0;bottom=0;" vertex="1" parent="5JNaujrm3hN9MsrldkOH-64">
          <mxGeometry y="60" width="320" height="30" as="geometry" />
        </mxCell>
        <mxCell id="5JNaujrm3hN9MsrldkOH-69" value="" style="shape=partialRectangle;overflow=hidden;connectable=0;fillColor=none;strokeColor=inherit;top=0;left=0;bottom=0;right=0;" vertex="1" parent="5JNaujrm3hN9MsrldkOH-68">
          <mxGeometry width="30" height="30" as="geometry">
            <mxRectangle width="30" height="30" as="alternateBounds" />
          </mxGeometry>
        </mxCell>
        <mxCell id="5JNaujrm3hN9MsrldkOH-70" value="file_name char(50) NOT NULL" style="shape=partialRectangle;overflow=hidden;connectable=0;fillColor=none;align=left;strokeColor=inherit;top=0;left=0;bottom=0;right=0;spacingLeft=6;" vertex="1" parent="5JNaujrm3hN9MsrldkOH-68">
          <mxGeometry x="30" width="290" height="30" as="geometry">
            <mxRectangle width="290" height="30" as="alternateBounds" />
          </mxGeometry>
        </mxCell>
        <mxCell id="5JNaujrm3hN9MsrldkOH-71" value="" style="shape=tableRow;horizontal=0;startSize=0;swimlaneHead=0;swimlaneBody=0;fillColor=none;collapsible=0;dropTarget=0;points=[[0,0.5],[1,0.5]];portConstraint=eastwest;strokeColor=inherit;top=0;left=0;right=0;bottom=0;" vertex="1" parent="5JNaujrm3hN9MsrldkOH-64">
          <mxGeometry y="90" width="320" height="30" as="geometry" />
        </mxCell>
        <mxCell id="5JNaujrm3hN9MsrldkOH-72" value="" style="shape=partialRectangle;overflow=hidden;connectable=0;fillColor=none;strokeColor=inherit;top=0;left=0;bottom=0;right=0;" vertex="1" parent="5JNaujrm3hN9MsrldkOH-71">
          <mxGeometry width="30" height="30" as="geometry">
            <mxRectangle width="30" height="30" as="alternateBounds" />
          </mxGeometry>
        </mxCell>
        <mxCell id="5JNaujrm3hN9MsrldkOH-73" value="supplier_id INT" style="shape=partialRectangle;overflow=hidden;connectable=0;fillColor=none;align=left;strokeColor=inherit;top=0;left=0;bottom=0;right=0;spacingLeft=6;" vertex="1" parent="5JNaujrm3hN9MsrldkOH-71">
          <mxGeometry x="30" width="290" height="30" as="geometry">
            <mxRectangle width="290" height="30" as="alternateBounds" />
          </mxGeometry>
        </mxCell>
        <mxCell id="5JNaujrm3hN9MsrldkOH-74" value="" style="shape=tableRow;horizontal=0;startSize=0;swimlaneHead=0;swimlaneBody=0;fillColor=none;collapsible=0;dropTarget=0;points=[[0,0.5],[1,0.5]];portConstraint=eastwest;strokeColor=inherit;top=0;left=0;right=0;bottom=0;" vertex="1" parent="5JNaujrm3hN9MsrldkOH-64">
          <mxGeometry y="120" width="320" height="30" as="geometry" />
        </mxCell>
        <mxCell id="5JNaujrm3hN9MsrldkOH-75" value="" style="shape=partialRectangle;overflow=hidden;connectable=0;fillColor=none;strokeColor=inherit;top=0;left=0;bottom=0;right=0;" vertex="1" parent="5JNaujrm3hN9MsrldkOH-74">
          <mxGeometry width="30" height="30" as="geometry">
            <mxRectangle width="30" height="30" as="alternateBounds" />
          </mxGeometry>
        </mxCell>
        <mxCell id="5JNaujrm3hN9MsrldkOH-76" value="FOREIGN KEY (supplier_id) REFERENCES Supplier(id)" style="shape=partialRectangle;overflow=hidden;connectable=0;fillColor=none;align=left;strokeColor=inherit;top=0;left=0;bottom=0;right=0;spacingLeft=6;" vertex="1" parent="5JNaujrm3hN9MsrldkOH-74">
          <mxGeometry x="30" width="290" height="30" as="geometry">
            <mxRectangle width="290" height="30" as="alternateBounds" />
          </mxGeometry>
        </mxCell>
      </root>
    </mxGraphModel>
  </diagram>
</mxfile>
